HIERARCHY
ROOT Hips
{
 OFFSET 0.000000 0.000000 0.000000
 CHANNELS 6 Xposition Yposition Zposition Yrotation Xrotation Zrotation
 JOINT Chest
 {
  OFFSET 0.000000 9.585900 0.002600
  CHANNELS 3 Yrotation Xrotation Zrotation
  JOINT Chest2
  {
   OFFSET 0.000000 9.601200 -0.005300
   CHANNELS 3 Yrotation Xrotation Zrotation
   JOINT Chest3
   {
    OFFSET 0.000000 9.561800 0.000000
    CHANNELS 3 Yrotation Xrotation Zrotation
    JOINT Chest4
    {
     OFFSET 0.000000 9.552100 0.000000
     CHANNELS 3 Yrotation Xrotation Zrotation
     JOINT Neck
     {
      OFFSET 0.000000 14.453000 0.000000
      CHANNELS 3 Yrotation Xrotation Zrotation
      JOINT Head
      {
       OFFSET 0.000000 8.936500 -0.011300
       CHANNELS 3 Yrotation Xrotation Zrotation
       End Site
       {
        OFFSET 0.000000 17.073600 -0.006000
       }
      }
     }
     JOINT RightCollar
     {
      OFFSET -2.921100 9.558500 0.000000
      CHANNELS 3 Yrotation Xrotation Zrotation
      JOINT RightShoulder
      {
       OFFSET -13.519700 0.000000 0.000000
       CHANNELS 3 Yrotation Xrotation Zrotation
       JOINT RightElbow
       {
        OFFSET 0.000000 -29.696600 0.000000
        CHANNELS 3 Yrotation Xrotation Zrotation
        JOINT RightWrist
        {
         OFFSET 0.000000 -24.004700 0.000000
         CHANNELS 3 Yrotation Xrotation Zrotation
         End Site
         {
          OFFSET 0.000000 -17.728500 0.000000
         }
        }
       }
      }
     }
     JOINT LeftCollar
     {
      OFFSET 2.921100 9.558500 0.000000
      CHANNELS 3 Yrotation Xrotation Zrotation
      JOINT LeftShoulder
      {
       OFFSET 13.519700 0.000000 0.000000
       CHANNELS 3 Yrotation Xrotation Zrotation
       JOINT LeftElbow
       {
        OFFSET 0.000000 -29.696600 0.000000
        CHANNELS 3 Yrotation Xrotation Zrotation
        JOINT LeftWrist
        {
         OFFSET 0.000000 -24.004700 0.000000
         CHANNELS 3 Yrotation Xrotation Zrotation
         End Site
         {
          OFFSET 0.000000 -17.728500 0.000000
         }
        }
       }
      }
     }
    }
   }
  }
 }
 JOINT RightHip
 {
  OFFSET -7.771700 -0.012900 -0.001300
  CHANNELS 3 Yrotation Xrotation Zrotation
  JOINT RightKnee
  {
   OFFSET 0.000000 -40.869800 0.001200
   CHANNELS 3 Yrotation Xrotation Zrotation
   JOINT RightAnkle
   {
    OFFSET 0.000000 -39.717900 0.002100
    CHANNELS 3 Yrotation Xrotation Zrotation
    JOINT RightToe
    {
     OFFSET 0.000000 -4.965400 11.033500
     CHANNELS 3 Yrotation Xrotation Zrotation
     End Site
     {
      OFFSET 0.000000 -1.423100 5.872300
     }
    }
   }
  }
 }
 JOINT LeftHip
 {
  OFFSET 7.771700 -0.012900 -0.001300
  CHANNELS 3 Yrotation Xrotation Zrotation
  JOINT LeftKnee
  {
   OFFSET 0.000000 -40.869800 0.001200
   CHANNELS 3 Yrotation Xrotation Zrotation
   JOINT LeftAnkle
   {
    OFFSET 0.000000 -39.717900 0.002100
    CHANNELS 3 Yrotation Xrotation Zrotation
    JOINT LeftToe
    {
     OFFSET 0.000000 -4.965400 11.033500
     CHANNELS 3 Yrotation Xrotation Zrotation
     End Site
     {
      OFFSET 0.000000 -1.423100 5.872300
     }
    }
   }
  }
 }
}
MOTION
Frames: 15
Frame Time: 0.008333
-92.386975 44.162168 16.834214 173.273360 -20.766517 -0.372281 0.058297 16.380084 3.189644 -0.049027 1.688028 0.365325 -0.075766 2.817573 0.609285 -0.069323 14.478622 3.146951 -5.603314 13.677841 -5.022335 -4.884985 -11.228866 -4.121440 23.288162 -2.982614 -12.806963 40.563611 -33.279372 -60.901502 66.341742 -32.024868 -56.815838 6.775926 -14.814343 -68.517351 -9.975726 -5.495764 -3.476895 6.247252 16.623820 25.944597 -122.130836 -54.448979 94.300502 -8.063509 -11.516994 -0.688115 -1.661834 -71.168298 14.115226 -147.959592 69.315101 -146.605400 -10.695901 -25.264795 8.488635 0.222471 -0.691199 0.098431 5.146803 -54.650764 -0.534913 176.232998 58.212686 175.247960 -2.476853 -41.789612 2.743693 0.074766 0.176580 0.036180
-92.389752 44.159167 16.836827 173.224615 -20.779251 -0.388625 -0.042689 16.296666 3.170983 -0.059861 1.675409 0.361867 -0.093937 2.797399 0.603475 -0.168913 14.433517 3.118885 -5.554999 13.803137 -5.095153 -4.814687 -11.095522 -4.210560 23.485318 -2.675954 -12.783970 41.729341 -33.253388 -61.556484 63.552355 -30.763600 -53.917120 5.946317 -13.805270 -65.390871 -9.852268 -5.346045 -3.559622 6.405775 16.676034 26.008818 -122.175495 -54.464905 94.351786 -8.062571 -11.521560 -0.679787 -1.698987 -71.154251 14.190975 -147.912858 69.326970 -146.558566 -10.637526 -25.288894 8.476847 0.175934 -0.642686 0.086196 5.137038 -54.642171 -0.477836 176.225220 58.204049 175.237381 -2.460941 -41.780290 2.733158 0.064787 0.163554 0.033457
-92.394813 44.157721 16.834941 173.173101 -20.822244 -0.388821 -0.152207 16.240131 3.128772 -0.069896 1.663538 0.357780 -0.110919 2.778417 0.596496 -0.263285 14.391573 3.084829 -5.518502 13.940533 -5.159328 -4.759463 -10.949069 -4.287776 23.683597 -2.428705 -12.693846 42.785574 -33.543281 -62.202693 61.127739 -29.348812 -50.988796 5.014790 -12.069564 -60.980089 -9.740814 -5.204829 -3.621755 6.573580 16.737209 26.066650 -122.217959 -54.517645 94.385767 -8.062392 -11.513826 -0.643547 -1.693521 -71.110645 14.224614 -147.911112 69.337151 -146.555475 -10.620570 -25.266477 8.464643 0.166123 -0.653583 0.088827 5.148155 -54.598576 -0.449196 176.220475 58.193789 175.233454 -2.451323 -41.779017 2.719363 0.063716 0.157796 0.036590
-92.397847 44.156971 16.831590 173.118406 -20.878926 -0.397628 -0.250695 16.201004 3.092775 -0.078835 1.653628 0.353455 -0.126036 2.762567 0.589264 -0.348441 14.357140 3.048132 -5.502577 14.080940 -5.212366 -4.729536 -10.798960 -4.348476 23.895138 -2.274736 -12.561669 43.665415 -34.100314 -62.742242 59.178599 -27.854509 -48.194419 4.212673 -9.377335 -55.380354 -9.643396 -5.090125 -3.654446 6.720984 16.838185 26.128979 -122.302843 -54.558430 94.508841 -8.017624 -11.514452 -0.611566 -1.720435 -71.054740 14.295026 -147.926544 69.345684 -146.571105 -10.594478 -25.237478 8.445903 0.155782 -0.653431 0.088953 5.137442 -54.537667 -0.394858 176.215797 58.183014 175.226535 -2.437528 -41.785502 2.700757 0.059079 0.155821 0.038277
-92.402410 44.155312 16.830852 173.075512 -20.919828 -0.399164 -0.347747 16.152459 3.045304 -0.085963 1.646509 0.349311 -0.138040 2.751218 0.582414 -0.416913 14.333091 3.012354 -5.517105 14.217466 -5.254024 -4.735762 -10.652293 -4.390311 24.119932 -2.219239 -12.427817 44.380985 -34.883200 -63.092718 57.745422 -26.294251 -45.676539 3.800678 -5.580964 -48.711560 -9.565795 -5.008059 -3.654113 6.784354 16.974214 26.167278 -122.350868 -54.602705 94.664461 -8.020205 -11.521030 -0.595995 -1.738179 -71.016681 14.343916 -147.946827 69.352532 -146.591698 -10.585547 -25.226706 8.434454 0.158593 -0.633984 0.086540 5.084711 -54.488046 -0.337231 176.227081 58.180231 175.209929 -2.399884 -41.808170 2.668608 0.050111 0.174588 0.034381
-92.402721 44.156433 16.824417 173.005448 -21.001751 -0.404664 -0.388534 16.151414 3.018478 -0.090325 1.642189 0.345831 -0.145396 2.744362 0.576578 -0.459777 14.319209 2.981901 -5.570457 14.345475 -5.286288 -4.787077 -10.513726 -4.413808 24.327185 -2.224583 -12.320347 45.030818 -35.817061 -63.316975 56.660631 -24.732828 -43.379574 4.133652 -0.767588 -41.276003 -9.521808 -4.954236 -3.627765 6.827502 17.043456 26.155158 -122.307213 -54.633470 94.676060 -8.039409 -11.568782 -0.572936 -1.792478 -70.935996 14.459625 -148.001694 69.357540 -146.647790 -10.605758 -25.232199 8.434959 0.155150 -0.614130 0.076810 5.087271 -54.396622 -0.273451 176.271339 58.168491 175.249562 -2.368762 -41.816447 2.654293 0.051180 0.178613 0.032440
-92.405681 44.157738 16.819088 172.932881 -21.075016 -0.383826 -0.400897 16.147160 2.977465 -0.091653 1.639981 0.343367 -0.147715 2.740892 0.572497 -0.474607 14.312886 2.961189 -5.664381 14.461322 -5.313083 -4.884663 -10.386995 -4.423008 24.489672 -2.232311 -12.249525 45.735329 -36.718411 -63.578497 55.577593 -23.242980 -41.117027 5.448046 4.432419 -33.665021 -9.512697 -4.921589 -3.591808 6.817988 17.079961 26.134333 -122.307415 -54.630339 94.733534 -8.049770 -11.574293 -0.585049 -1.808357 -70.860397 14.532730 -148.079431 69.366095 -146.735955 -10.641294 -25.286535 8.455133 0.180843 -0.569376 0.061173 5.083754 -54.308964 -0.221125 176.293354 58.166646 175.243183 -2.352591 -41.817028 2.639847 0.048527 0.167106 0.031815
-92.410557 44.160493 16.812722 172.918833 -21.152418 -0.358874 -0.436927 16.168600 2.929579 -0.092100 1.622473 0.340716 -0.136966 2.775526 0.576305 -0.475337 14.311179 2.953735 -5.796094 14.524783 -5.340221 -5.023503 -10.275751 -4.423566 24.616245 -2.237407 -12.240156 46.548680 -37.394032 -63.964783 54.417340 -21.591249 -38.906032 7.326652 8.627741 -26.803411 -9.528708 -4.941756 -3.566880 6.762406 17.083476 26.123869 -122.311639 -54.602585 94.797530 -8.060334 -11.579662 -0.614836 -1.835776 -70.780535 14.555036 -148.248556 69.379458 -146.904168 -10.754185 -25.283213 8.452309 0.253026 -0.611550 0.080561 5.050587 -54.216082 -0.203375 176.316038 58.170680 175.231311 -2.358038 -41.834376 2.639358 0.058688 0.180739 0.031425
-92.410710 44.164836 16.806919 172.884491 -21.228538 -0.340271 -0.417863 16.226195 2.915293 -0.089922 1.576928 0.338777 -0.147738 2.801158 0.572808 -0.469912 14.310450 2.949502 -5.922793 14.585400 -5.359965 -5.194558 -10.184759 -4.418585 24.761883 -2.202109 -12.264017 47.456733 -37.783654 -64.432116 53.379416 -19.462248 -36.950182 8.710323 10.412938 -21.856079 -9.525818 -4.959417 -3.562142 6.671334 17.053776 26.135930 -122.295321 -54.572938 94.837975 -8.092508 -11.601956 -0.650231 -1.895542 -70.703104 14.633584 -148.320927 69.383249 -146.991721 -10.801698 -25.297217 8.441162 0.274361 -0.620479 0.090375 4.934562 -54.109920 -0.094131 176.389037 58.183872 175.221930 -2.342206 -41.871237 2.634320 0.052035 0.211715 0.021386
-92.407546 44.170354 16.803241 172.836580 -21.291129 -0.322489 -0.382292 16.222168 2.905847 -0.072293 1.594400 0.348068 -0.159883 2.784122 0.565194 -0.450392 14.310968 2.955400 -6.073620 14.674467 -5.380022 -5.384871 -10.115255 -4.407426 24.900815 -2.106565 -12.316197 48.411063 -37.956845 -64.902998 52.140179 -17.309837 -35.070214 9.125784 9.923751 -19.760212 -9.525681 -4.940572 -3.588256 6.552749 16.988973 26.173118 -122.288766 -54.533556 94.885416 -8.124862 -11.620642 -0.699168 -1.899615 -70.636050 14.677342 -148.337256 69.390338 -147.011643 -10.831949 -25.324084 8.455697 0.289603 -0.609248 0.077880 4.897067 -54.021912 -0.026191 176.388820 58.192172 175.188407 -2.354900 -41.893519 2.627295 0.052639 0.233425 0.019454
-92.403193 44.176985 16.801614 172.793446 -21.337760 -0.300053 -0.335587 16.217095 2.903968 -0.063355 1.611386 0.355206 -0.159472 2.773840 0.561576 -0.368292 14.307049 2.988920 -6.309401 14.746647 -5.405132 -5.580699 -10.060304 -4.388921 24.958178 -1.994341 -12.427157 49.334737 -37.974491 -65.372213 50.201577 -15.974908 -32.941286 8.963691 8.703369 -20.456242 -9.577999 -4.932512 -3.642842 6.411339 16.892091 26.228691 -122.291548 -54.492993 94.932946 -8.153638 -11.633367 -0.755851 -1.891887 -70.583662 14.702536 -148.329865 69.397268 -147.010748 -10.837323 -25.343027 8.473739 0.323290 -0.622980 0.067866 4.871370 -53.950685 0.027737 176.408825 58.207733 175.174146 -2.357857 -41.909174 2.621567 0.048487 0.242683 0.016952
-92.397881 44.184929 16.800929 172.775501 -21.374332 -0.280111 -0.303050 16.215435 2.903942 -0.069549 1.630006 0.357379 -0.147312 2.763780 0.562511 -0.362662 14.329543 3.000067 -6.484266 14.785863 -5.413693 -5.774153 -10.012271 -4.361872 25.051992 -1.908368 -12.581107 50.170678 -37.830599 -65.877400 47.891556 -15.435057 -30.710041 8.364828 7.749349 -22.928345 -9.535064 -4.958825 -3.701089 6.255601 16.779259 26.292594 -122.302195 -54.455727 94.973606 -8.179308 -11.642487 -0.815423 -1.938731 -70.541614 14.758536 -148.281664 69.398016 -146.984336 -10.844776 -25.319745 8.467580 0.301398 -0.701910 0.093186 4.869639 -53.896103 0.039561 176.401978 58.222984 175.157067 -2.365758 -41.908151 2.614644 0.053023 0.245278 0.017155
-92.392944 44.193988 16.800450 172.765700 -21.404019 -0.250985 -0.274138 16.213396 2.913337 -0.093479 1.655153 0.332933 -0.118451 2.750965 0.589246 -0.381433 14.349101 2.983800 -6.656300 14.820470 -5.408767 -5.967705 -9.969405 -4.320571 25.117886 -1.844726 -12.744548 50.876777 -37.579614 -66.361511 45.947024 -14.999111 -28.814241 7.330462 6.932739 -25.923232 -9.460063 -4.995667 -3.759144 6.108472 16.668035 26.357900 -122.329170 -54.422825 95.009553 -8.200668 -11.648973 -0.871685 -1.941015 -70.501150 14.761878 -148.226236 69.403269 -146.950958 -10.851994 -25.300161 8.476500 0.301549 -0.732749 0.088769 4.881026 -53.844561 0.026297 176.367069 58.242167 175.116091 -2.379343 -41.911975 2.603302 0.055275 0.251819 0.017919
-92.387375 44.203595 16.800439 172.765106 -21.425943 -0.222950 -0.263667 16.233064 2.895748 -0.101312 1.648717 0.341685 -0.110215 2.760726 0.578734 -0.378717 14.354616 2.978017 -6.833052 14.850182 -5.385220 -6.170935 -9.931762 -4.257870 25.154359 -1.798804 -12.889962 51.422401 -37.345705 -66.716002 44.800012 -14.273843 -27.594211 6.214981 6.136395 -28.397663 -9.376194 -5.035601 -3.800410 5.993722 16.630662 26.412836 -122.421606 -54.357293 95.125848 -8.191066 -11.634011 -0.931261 -1.917514 -70.468037 14.737389 -148.155030 69.408919 -146.894401 -10.856242 -25.271646 8.476154 0.312770 -0.757821 0.088654 4.872871 -53.796495 0.018237 176.350434 58.267903 175.084852 -2.389178 -41.927742 2.594833 0.067504 0.265145 0.019651
-92.378992 44.211448 16.805681 172.767386 -21.411877 -0.214224 -0.242658 16.220764 2.892638 -0.107779 1.646590 0.348049 -0.101603 2.763316 0.569063 -0.371425 14.356450 2.968719 -7.022137 14.876606 -5.345956 -6.391907 -9.897269 -4.175287 25.162301 -1.724553 -13.002231 51.843394 -37.140059 -66.968791 44.358970 -13.392824 -27.089223 5.464170 5.579458 -29.786061 -9.297894 -5.064437 -3.823530 5.904603 16.497647 26.479910 -122.479950 -54.370309 95.119783 -8.136149 -11.586749 -1.003986 -1.930299 -70.471975 14.746812 -148.059829 69.417694 -146.801338 -10.833734 -25.232563 8.450915 0.315096 -0.789469 0.103804 4.847736 -53.790627 0.037737 176.312557 58.294207 175.033355 -2.403892 -41.954290 2.595195 0.055142 0.294685 0.011163
